<svg version="1.1" xmlns="http://www.w3.org/2000/svg" viewBox="0 0 182.39999389648438 117.60000610351562" width="182.39999389648438" height="117.60000610351562"><!-- svg-source:excalidraw --><metadata><!-- payload-type:application/vnd.excalidraw+json --><!-- payload-version:2 --><!-- payload-start -->eyJ2ZXJzaW9uIjoiMSIsImVuY29kaW5nIjoiYnN0cmluZyIsImNvbXByZXNzZWQiOnRydWUsImVuY29kZWQiOiJ4nHVS24rbMFx1MDAxMH3PV1x1MDAxOO9r68hSfFx1MDAwYpRC2y3sQ5bSLIRSStFak1hElows59Il/76SkrXSlNog0JnRnJlz5mVcdTAwMTJFsTl2XHUwMDEwz6NcdTAwMThcdTAwMGU1XHUwMDE1nGm6j985fFx1MDAwN7rnStpcdTAwMTD2915ccrr2mY0xXT+fTluqt2A6QWtIdrxcdTAwMWao6M3AuEpq1U65gbb/6M5H2sKHTrXM6CSQvFx1MDAwN8aN0mcuXHUwMDEw0II0va3+096j6MWfNsKZY9ytvn2XT4tcdTAwMWZPZLX4TZaHhqy+XCL/1Ce9jaChNlRuXHUwMDA0hNDB4qTIXHUwMDEyjFx1MDAxMEoxRlx1MDAwNVwiKc7G8NGG06JcdTAwMWHve85M47BcdTAwMWMnpLJcdTAwMWYpq3xWzkg5pjTAN42xOVWR5LYqylNEsjTL8Zhy7mFcdTAwMWWhXHUwMDEx6Y1WW/ishJ3YNnqXgvtDm8+03m60XHUwMDFhJFx1MDAxYnOMprLvqLa6hLw1XHUwMDE3YmmOvrp1xEpcdTAwMTnfcKwuXHUwMDEz4Fx1MDAxYvx/ryzpppHQO+3TXHUwMDExVVx1MDAxZK258eqgMIXrsHtg3qZfoSdtXHJ+cD7JQYhcdTAwMTHmkoFTP6boLzbJLmxvXHUwMDFlXHUwMDA3XHUwMDAzyVx1MDAwNTmF3lx1MDAwMZi3I89cblJcdTAwMTZlPkbCeqZpdos+KulXNcVlVWFSXdnH+y9224wvu7ZcdTAwMWJcdTAwMGLBXHUwMDAz19v91SaGXHUwMDExh47R85O0KFBBUJbPcFx1MDAxMSRcdTAwMTZcXG5v51x1MDAxN6reXHUwMDA2XHUwMDE2j57s6YvGtOuWxpZcdTAwMWNlsNpytuR/XHUwMDFjgi+KnzFcdTAwMDOdxbIraKFcdTAwMTjcS/osboeId1x1MDAxY/af/l2lu7X/4slFWrdG4C04TU6vb5NcdTAwMGXfIn0=<!-- payload-end --></metadata><defs><style class="style-fonts">
      </style></defs><rect x="0" y="0" width="182.39999389648438" height="117.60000610351562" fill="#ffffff"></rect><g stroke-linecap="round" transform="translate(10 10) rotate(0 81.19999694824219 48.80000305175781)"><path d="M24.4 0 C56.2 1.21, 86.37 -0.1, 138 0 M24.4 0 C53.57 0.05, 82.07 1.91, 138 0 M138 0 C152.73 1.29, 163.11 6.82, 162.4 24.4 M138 0 C152.54 0.74, 161.4 8.08, 162.4 24.4 M162.4 24.4 C162.75 37.49, 160.89 48.51, 162.4 73.2 M162.4 24.4 C161.85 39.98, 161.65 55.41, 162.4 73.2 M162.4 73.2 C162.02 91.29, 155.71 96.05, 138 97.6 M162.4 73.2 C161.32 91, 156.26 96.57, 138 97.6 M138 97.6 C94.87 96.74, 55.11 96.92, 24.4 97.6 M138 97.6 C106.15 98.14, 74.22 97.31, 24.4 97.6 M24.4 97.6 C7.12 98.62, 1.74 88.05, 0 73.2 M24.4 97.6 C10.1 98.61, 1.4 88.62, 0 73.2 M0 73.2 C-1.36 60.58, 0.09 50.35, 0 24.4 M0 73.2 C-1.08 61.13, 0.7 49.95, 0 24.4 M0 24.4 C-1.46 7.28, 8.28 -1.88, 24.4 0 M0 24.4 C-0.12 8.93, 8.53 -0.18, 24.4 0" stroke="#1e1e1e" stroke-width="2" fill="none"></path></g></svg>